<svg width="47" height="52" viewBox="0 0 47 52" fill="none" xmlns="http://www.w3.org/2000/svg">
<path fill-rule="evenodd" clip-rule="evenodd" d="M0 0.869171H39.1161C43.6645 0.869171 47 3.92977 47 7.50046C47 11.0712 43.6645 14.1318 39.1161 14.1318H7.88387C3.63871 14.1318 0 11.0712 0 7.50046V0.869171Z" fill="#3B7DED"/>
<path fill-rule="evenodd" clip-rule="evenodd" d="M7.88379 19.4878H31.2322C35.7806 19.4878 39.116 22.2934 39.116 25.8641C39.116 29.6898 35.7806 32.4954 31.2322 32.4954H15.7677C11.5225 32.4954 7.88379 29.6898 7.88379 25.8641V19.4878Z" fill="#2BA24C"/>
<path fill-rule="evenodd" clip-rule="evenodd" d="M15.7676 37.8514H23.6514C27.8966 37.8514 31.2321 40.912 31.2321 44.4827C31.2321 48.0534 27.8966 51.114 23.6514 51.114C19.1031 51.114 15.7676 48.0534 15.7676 44.4827V37.8514Z" fill="#E43E2B"/>
</svg>
